<?xml version="1.0" standalone="yes"?>

<svg version="1.1" viewBox="0.0 0.0 960.0 720.0" fill="none" stroke="none" stroke-linecap="square" stroke-miterlimit="10" xmlns="http://www.w3.org/2000/svg" xmlns:xlink="http://www.w3.org/1999/xlink"><clipPath id="p.0"><path d="m0 0l960.0 0l0 720.0l-960.0 0l0 -720.0z" clip-rule="nonzero"></path></clipPath><g clip-path="url(#p.0)"><path fill="#000000" fill-opacity="0.0" d="m0 0l960.0 0l0 720.0l-960.0 0z" fill-rule="nonzero"></path><path fill="#ffffff" d="m16.584566 68.92308l890.2992 0l0 52.913383l-890.2992 0z" fill-rule="nonzero"></path><path stroke="#000000" stroke-width="1.0" stroke-linejoin="round" stroke-linecap="butt" d="m16.584566 68.92308l890.2992 0l0 52.913383l-890.2992 0z" fill-rule="nonzero"></path><path fill="#ffffff" d="m16.584566 174.76923l927.40155 0l0 52.91339l-927.40155 0z" fill-rule="nonzero"></path><path stroke="#000000" stroke-width="1.0" stroke-linejoin="round" stroke-linecap="butt" d="m16.584566 174.76923l927.40155 0l0 52.91339l-927.40155 0z" fill-rule="nonzero"></path><path fill="#ffffff" d="m16.845623 280.6154l871.43304 0l0 52.91339l-871.43304 0z" fill-rule="nonzero"></path><path stroke="#000000" stroke-width="1.0" stroke-linejoin="round" stroke-linecap="butt" d="m16.845623 280.6154l871.43304 0l0 52.91339l-871.43304 0z" fill-rule="nonzero"></path><path fill="#ffffff" d="m16.584566 386.46155l927.40155 0l0 52.91339l-927.40155 0z" fill-rule="nonzero"></path><path stroke="#000000" stroke-width="1.0" stroke-linejoin="round" stroke-linecap="butt" d="m16.584566 386.46155l927.40155 0l0 52.91339l-927.40155 0z" fill-rule="nonzero"></path><path fill="#ffffff" d="m16.845623 492.30768l815.748 0l0 52.91339l-815.748 0z" fill-rule="nonzero"></path><path stroke="#000000" stroke-width="1.0" stroke-linejoin="round" stroke-linecap="butt" d="m16.845623 492.30768l815.748 0l0 52.91339l-815.748 0z" fill-rule="nonzero"></path><path fill="#ffffff" d="m16.584566 598.1539l927.40155 0l0 52.91339l-927.40155 0z" fill-rule="nonzero"></path><path stroke="#000000" stroke-width="1.0" stroke-linejoin="round" stroke-linecap="butt" d="m16.584566 598.1539l927.40155 0l0 52.91339l-927.40155 0z" fill-rule="nonzero"></path><path fill="#000000" d="m16.0 16.0l928.0 0l0 52.913383l-928.0 0z" fill-rule="nonzero"></path><path stroke="#000000" stroke-width="1.0" stroke-linejoin="round" stroke-linecap="butt" d="m16.0 16.0l928.0 0l0 52.913383l-928.0 0z" fill-rule="nonzero"></path><path fill="#000000" d="m16.0 121.84615l798.07874 0l0 52.913383l-798.07874 0z" fill-rule="nonzero"></path><path stroke="#000000" stroke-width="1.0" stroke-linejoin="round" stroke-linecap="butt" d="m16.0 121.84615l798.07874 0l0 52.913383l-798.07874 0z" fill-rule="nonzero"></path><path fill="#000000" d="m16.261055 227.6923l537.95276 0l0 52.913376l-537.95276 0z" fill-rule="nonzero"></path><path stroke="#000000" stroke-width="1.0" stroke-linejoin="round" stroke-linecap="butt" d="m16.261055 227.6923l537.95276 0l0 52.913376l-537.95276 0z" fill-rule="nonzero"></path><path fill="#000000" d="m16.0 333.53845l798.07874 0l0 52.91339l-798.07874 0z" fill-rule="nonzero"></path><path stroke="#000000" stroke-width="1.0" stroke-linejoin="round" stroke-linecap="butt" d="m16.0 333.53845l798.07874 0l0 52.91339l-798.07874 0z" fill-rule="nonzero"></path><path fill="#000000" d="m16.261055 439.3846l463.71655 0l0 52.91339l-463.71655 0z" fill-rule="nonzero"></path><path stroke="#000000" stroke-width="1.0" stroke-linejoin="round" stroke-linecap="butt" d="m16.261055 439.3846l463.71655 0l0 52.91339l-463.71655 0z" fill-rule="nonzero"></path><path fill="#000000" d="m16.0 545.2308l334.07874 0l0 52.91339l-334.07874 0z" fill-rule="nonzero"></path><path stroke="#000000" stroke-width="1.0" stroke-linejoin="round" stroke-linecap="butt" d="m16.0 545.2308l334.07874 0l0 52.91339l-334.07874 0z" fill-rule="nonzero"></path><path fill="#000000" d="m16.80378 651.0769l927.1811 0l0 52.91339l-927.1811 0z" fill-rule="nonzero"></path><path stroke="#000000" stroke-width="1.0" stroke-linejoin="round" stroke-linecap="butt" d="m16.80378 651.0769l927.1811 0l0 52.91339l-927.1811 0z" fill-rule="nonzero"></path><path fill="#000000" d="m16.0 16.0l371.2126 0l0 370.4567l-371.2126 0z" fill-rule="nonzero"></path><path stroke="#000000" stroke-width="1.0" stroke-linejoin="round" stroke-linecap="butt" d="m16.0 16.0l371.2126 0l0 370.4567l-371.2126 0z" fill-rule="nonzero"></path></g></svg>

